# xmcd CD database file
# Copyright (C) 1993-1996 Ti Kan
#
# Track frame offsets:
#	150
#	11917
#	28255
#	41335
#	52555
#	63687
#	75525
#	86440
#	99827
#	110825
#	124540
#	138475
#	150837
#	161130
#	171190
#	184657
#	197477
#	220330
#	253750
#	280352
#	293042
#	305887
#	318892
#
# Disc length: 4425 seconds
#
# Revision: 2
# Processed by: cddbd v1.5.1PL0 Copyright (c) Steve Scherf et al.
# Submitted via: xmcd 2.0
#
DISCID=3e114717
DTITLE=Various Artist - The Great Tomato Blues Package, CD 2
DYEAR=1900
DGENRE=
TTITLE0=Ike and Tina Turner - Poor Fool
TTITLE1=B.B. King - The Other Night Blues
TTITLE2=Brownie McGhee - The Blues Had A Baby
TTITLE3=Bo Diddley - Bo Diddley
TTITLE4=Little Richard - Lucille
TTITLE5=Etta James - I'd Rather Go Blind
TTITLE6=Wilbert Harrison - Kansas City
TTITLE7=Muddy Waters - Mannish Boy
TTITLE8=Jimmy Reed - Take Out Some Insurance
TTITLE9=Koko Taylor - Wang Dang Doodle
TTITLE10=Chuck Berry - In The Wee Wee Hours
TTITLE11=`Fats' Domino - Blue Monday
TTITLE12=Don Garner and Dee Dee Ford - I Need Your Lovin'
TTITLE13=Irma Thomas - Wish Someone Would Care
TTITLE14=Percy Sledge - When A Man Needs A Woman
TTITLE15=Carl Perkins - Honey Don't
TTITLE16=Jerry Lee Lewis - Whole Lotta Shakin' Goin' On
TTITLE17=John Lee Hooker - Tupelo
TTITLE18=Albert King - Angel Of Mercy
TTITLE19=Rocky Hill and Johnny Winter - Bad Girl Blues
TTITLE20=Townes van Zandt - Nothin'
TTITLE21=Mississippi John Hurt - Hot Time In Old Town Tonight
TTITLE22=Leadbelly - Midnight Special
EXTD=
EXTT0=
EXTT1=
EXTT2=
EXTT3=
EXTT4=
EXTT5=
EXTT6=
EXTT7=
EXTT8=
EXTT9=
EXTT10=
EXTT11=
EXTT12=
EXTT13=
EXTT14=
EXTT15=
EXTT16=
EXTT17=
EXTT18=
EXTT19=
EXTT20=
EXTT21=
EXTT22=
PLAYORDER=
